<?xml version="1.0" standalone="no"?><!DOCTYPE svg PUBLIC "-//W3C//DTD SVG 1.1//EN" "http://www.w3.org/Graphics/SVG/1.1/DTD/svg11.dtd"><svg t="1680507664160" class="icon" viewBox="0 0 1024 1024" version="1.1" xmlns="http://www.w3.org/2000/svg" p-id="20208" width="128" height="128" xmlns:xlink="http://www.w3.org/1999/xlink"><path d="M684.2 549.2c3.1-201.4-161.1-292.7-172.1-298.6v-0.3l-0.3 0.1-0.3-0.1v0.3c-11 5.9-175.2 97.2-172.1 298.6C306 571 271 609.8 276.5 676.8c5.6 67 70 111.5 94.7 109.1 24.7-2.4 17.5-21 17.5-21l8.5-34.7s36.4 55.9 48.1 55.8c10.5-0.9 60.3-0.1 66.3 0h0.6c6-0.1 55.8-0.9 66.3 0 11.6 0 48.1-55.8 48.1-55.8l8.4 34.7s-7.2 18.6 17.5 21c24.7 2.4 89.2-42 94.7-109.1 5.5-67-29.6-105.8-63-127.6z m-172.4-3c-4.7-0.1-65.7-2.3-71.3-74.3 2-68.4 66.5-74.5 71.3-74.8 4.8 0.3 69.3 6.4 71.3 74.8-5.6 72-66.6 74.2-71.3 74.3z m-36.1 347.1c0 8.2-6.5 14.8-14.6 14.8-8.1-0.1-14.6-6.7-14.6-14.8v-73.2c0-8.2 6.5-14.8 14.6-14.8 8 0 14.6 6.6 14.6 14.8v73.2z m53.6 39.7c0 8.2-6.6 14.9-14.8 15-8.2-0.1-14.8-6.8-14.8-15V824c0-8.3 6.6-15 14.8-15 8.2 0 14.8 6.7 14.8 15v109z m49.4-56.9c0 8.2-6.5 14.8-14.6 14.8-8.1-0.1-14.6-6.7-14.6-14.8v-52.3c0-8.2 6.5-14.8 14.6-14.8s14.6 6.6 14.6 14.8v52.3z m0 0" p-id="20209" fill="#0d80f1"></path><path d="M425.7 101.9h-47.2v119.9h-30V101.9h-47.3V77.5h124.5v24.4zM510.2 75.2c43.9 2.7 67.4 27.6 70.5 74.9-2.3 47-25.9 71.8-70.8 74.3-44.6-2.8-68.3-27.6-70.8-74.3 2.1-47.9 25.8-72.9 71.1-74.9z m-1.3 123.3c25.2-0.9 38.3-17.1 39.1-48.4-1.1-31.6-14-48-38.9-49.3-24.7 1.8-37.6 18.1-38.9 49.1 1 30.6 14 46.8 38.7 48.6zM662.2 169.4H635v52.4h-29.8V77.5H665c34.2 0.9 52.1 15.9 53.6 44.9 0 31.3-18.8 47-56.4 47z m-2.7-68.8H635v45.9h24.5c18.1-0.2 27.3-8 27.5-23.3-0.5-14.7-9.7-22.2-27.5-22.6z" fill="#0d80f1" p-id="20210"></path></svg>